<svg width="37" height="19" viewBox="0 0 37 19" fill="none" xmlns="http://www.w3.org/2000/svg">
<path d="M4.90795 15.512V15.512C2.99397 15.512 1.44238 13.9605 1.44238 12.0465V10.8301C1.44238 8.98252 2.96738 7.49931 4.81428 7.55061V7.55061L24.5774 7.36328C28.3281 7.79215 30.6944 8.00749 34.1249 9.05971C34.6564 9.22273 35.062 9.65274 35.2083 10.1891V10.1891C35.2394 10.303 35.2582 10.42 35.2644 10.538L35.4262 13.6115C35.4369 13.8155 35.4129 14.0199 35.3553 14.2159V14.2159C35.1293 14.9843 34.424 15.512 33.623 15.512H31.7895M12.0264 15.512H24.8584" stroke="#FDFCF7" stroke-width="1.5"/>
<path d="M23.3776 7.41173L23.1936 6.60614C23.1936 6.60614 20.3915 2.39367 18.8105 1.58511C17.2295 0.776546 12.6085 1.04174 12.4098 1.04154C10.7647 1.04181 12.6319 1.03907 9.67603 1.1805C6.72021 1.32194 5.0654 3.68715 4.75752 6.35971C4.70105 6.84996 4.75752 7.62213 4.75752 7.62213" stroke="#FDFCF7" stroke-width="1.5"/>
<circle cx="8.46735" cy="15.044" r="2.90289" stroke="#FDFCF7" stroke-width="1.5"/>
<circle cx="28.3238" cy="15.044" r="2.90289" stroke="#FDFCF7" stroke-width="1.5"/>
</svg>
