<svg width="46" height="48" viewBox="0 0 46 48" fill="none" xmlns="http://www.w3.org/2000/svg">
<path d="M24.1341 36L7.81074 36C6.70408 36 8.27172 33 10.1163 33L21.6438 33C23.4886 33 25.1484 36 24.1341 36Z" fill="#FDFCF7" stroke="#FDFCF7" stroke-width="1.5"/>
<path d="M19.3305 14.9875V14.9875C18.6238 14.5703 18.3868 13.6607 18.7999 12.9517L19.0808 12.4696C19.6516 11.4899 20.9086 11.1585 21.8882 11.7293L25.4492 13.8042C26.4243 14.3723 26.7542 15.6233 26.1861 16.5984L25.8543 17.1678C25.4677 17.8313 24.6155 18.0543 23.9535 17.6653V17.6653" stroke="#FDFCF7" stroke-width="1.5"/>
<path d="M19.8194 24.7653V24.7653C20.5192 25.1939 20.7415 26.1072 20.317 26.8094L20.0283 27.2869C19.4417 28.2572 18.1795 28.5683 17.2092 27.9817L13.7375 25.8829C12.7412 25.2806 12.4219 23.9848 13.0241 22.9885L13.3495 22.4502C13.744 21.7978 14.5784 21.5657 15.2531 21.9208V21.9208" stroke="#FDFCF7" stroke-width="1.5"/>
<path d="M22.8926 19.4624L35.4024 26.6651C36.3413 27.2057 36.6642 28.4051 36.1237 29.344V29.344C35.5831 30.2829 34.3837 30.6058 33.4448 30.0652L20.9349 22.8625" stroke="#FDFCF7" stroke-width="1.5"/>
<path d="M19.5199 14.9978C19.6388 15.249 19.6368 15.5524 19.4879 15.8115L16.1135 21.6828C15.9646 21.942 15.7034 22.0965 15.4265 22.1201L19.5199 14.9978Z" fill="#FDFCF7" stroke="#FDFCF7" stroke-width="0.688864"/>
<path d="M19.4597 24.4205C19.4709 24.3705 19.4898 24.3213 19.5167 24.2745L20.3421 22.8382C20.369 22.7915 20.402 22.7504 20.4396 22.7155L19.4597 24.4205Z" fill="#FDFCF7" stroke="#FDFCF7" stroke-width="0.511671"/>
<path d="M22.5544 19.2558C22.5416 19.1317 22.5662 19.0025 22.6331 18.8861L23.3042 17.7184C23.3711 17.602 23.4703 17.5157 23.584 17.4643L22.5544 19.2558Z" fill="#FDFCF7" stroke="#FDFCF7" stroke-width="0.557969"/>
<path d="M18.4424 13.5L19.4424 15.5L15.4424 22L14.9424 21.5L13.9424 22L12.4424 24L12.9424 25L18.4424 28.5L19.9424 27.5L20.4424 26L19.9424 25L19.4424 24L20.9424 23L33.9424 30.5L35.4424 30L36.4424 29V27.5L23.4424 20L22.4424 19L23.4424 17.5H25.4424L26.4424 16V14.5L20.4424 11.5L18.4424 13.5Z" fill="#FDFCF7"/>
</svg>
