<svg width="248" height="87" viewBox="0 0 248 87" fill="none" xmlns="http://www.w3.org/2000/svg">
<path d="M29.6641 17.4219C29.8073 18.2943 30.0482 18.8216 30.3867 19.0039C30.9206 19.3034 31.5521 19.2448 32.2812 18.8281C32.4766 18.7109 32.6263 18.6003 32.7305 18.4961C34.2018 17.0898 34.7943 15.3841 34.5078 13.3789C34.4557 13.0534 34.3516 12.7539 34.1953 12.4805C33.6484 11.5951 32.9909 11.1784 32.2227 11.2305C31.4023 11.3086 30.8815 11.7969 30.6602 12.6953C30.5951 13.0078 30.263 14.5833 29.6641 17.4219ZM31.6758 6.62109C34.0846 6.97266 35.3607 7.16797 35.5039 7.20703C36.832 7.51953 37.9128 8.20964 38.7461 9.27734C39.5924 10.3451 40.0417 11.569 40.0938 12.9492C40.1979 15.7357 39.2669 18.0924 37.3008 20.0195C36.7539 20.5534 36.4805 20.8203 36.4805 20.8203C35.7122 21.5104 35.5169 22.3242 35.8945 23.2617C36.4544 24.5898 36.7474 26.3997 36.7734 28.6914C36.7734 29.1341 36.793 29.8177 36.832 30.7422C36.8711 31.6536 36.8906 32.3438 36.8906 32.8125C36.8906 33.5156 36.7604 34.0234 36.5 34.3359C36.2266 34.6484 35.7448 34.8503 35.0547 34.9414C34.4818 35.0065 33.8958 34.974 33.2969 34.8438C32.4245 34.6745 31.9492 34.1471 31.8711 33.2617C31.819 32.7018 31.7734 31.9531 31.7344 31.0156C31.6823 29.8698 31.6432 29.1146 31.6172 28.75C31.5521 27.6823 31.4544 26.7773 31.3242 26.0352C31.2852 25.7357 31.1289 25.3971 30.8555 25.0195C30.4779 24.4987 30.0286 24.2578 29.5078 24.2969C28.974 24.349 28.5898 24.6615 28.3555 25.2344C28.1602 25.7161 27.9193 26.6602 27.6328 28.0664C27.5417 28.4961 27.4049 29.2253 27.2227 30.2539C27.0534 31.1914 26.9102 31.9206 26.793 32.4414C26.6497 33.1055 26.4414 33.6523 26.168 34.082C25.7773 34.681 25.0156 34.987 23.8828 35C23.5964 35 23.2513 34.9544 22.8477 34.8633C21.8971 34.6289 21.487 33.9909 21.6172 32.9492C21.7344 32.0378 21.9102 30.9701 22.1445 29.7461C23.5898 22.194 24.8724 15.5013 25.9922 9.66797C26.1745 8.71745 26.5 8.04036 26.9688 7.63672C27.4245 7.22005 28.1276 6.97266 29.0781 6.89453C29.1823 6.88151 30.0417 6.82292 31.6562 6.71875C31.6693 6.65365 31.6758 6.62109 31.6758 6.62109ZM54.8008 21.6406C54.7227 20.1172 54.612 18.9323 54.4688 18.0859C54.4167 17.8255 54.2734 17.6693 54.0391 17.6172C53.8177 17.5781 53.6419 17.6823 53.5117 17.9297C52.5872 19.6354 51.9297 21.2305 51.5391 22.7148C51.474 23.0664 51.5326 23.3854 51.7148 23.6719C51.8971 23.9583 52.1445 24.1406 52.457 24.2188C52.9518 24.349 53.4076 24.3294 53.8242 24.1602C54.2799 23.9648 54.5599 23.6393 54.6641 23.1836C54.7812 22.7148 54.8268 22.2005 54.8008 21.6406ZM59.3516 31.8359C59.3516 31.901 59.3516 31.9727 59.3516 32.0508C59.3646 32.1289 59.3711 32.2005 59.3711 32.2656C59.3711 33.4245 58.9609 34.2253 58.1406 34.668C57.3464 35.1107 56.474 35.0521 55.5234 34.4922C54.9635 34.1667 54.6576 33.7305 54.6055 33.1836C54.5404 32.5716 54.4948 31.7383 54.4688 30.6836C54.4557 29.9544 54.2995 29.4141 54 29.0625C53.7005 28.7109 53.1992 28.4961 52.4961 28.418C51.3893 28.3008 50.5365 28.4245 49.9375 28.7891C49.4167 29.1146 48.9805 29.7201 48.6289 30.6055C48.5117 30.918 48.349 31.3216 48.1406 31.8164C47.8932 32.4414 47.7305 32.8451 47.6523 33.0273C47.3008 33.8997 46.7344 34.4922 45.9531 34.8047C45.1979 35.1042 44.4427 35.0586 43.6875 34.668C43.401 34.5247 43.1667 34.2904 42.9844 33.9648C42.763 33.5482 42.7174 33.099 42.8477 32.6172C42.9648 32.1615 43.1471 31.6341 43.3945 31.0352C44.293 28.7695 46.6107 23.0208 50.3477 13.7891C51.5586 10.8073 52.1771 9.27734 52.2031 9.19922C52.8281 7.54557 54.0065 6.76432 55.7383 6.85547C56.806 6.90755 57.4505 6.94661 57.6719 6.97266C58.5182 7.11589 59.0326 7.63021 59.2148 8.51562C59.293 8.90625 59.3385 9.24479 59.3516 9.53125C59.3516 11.2891 59.3516 15.3255 59.3516 21.6406V31.8359ZM82.2227 9.70703C81.832 11.8034 81.6302 12.8971 81.6172 12.9883C81.2786 14.7591 80.0417 21.1979 77.9062 32.3047C77.8932 32.3438 77.8867 32.3893 77.8867 32.4414C77.8737 32.5065 77.8607 32.5586 77.8477 32.5977C77.4701 34.5638 76.207 35.319 74.0586 34.8633C73.2773 34.694 72.763 34.1536 72.5156 33.2422C72.3854 32.7604 72.2357 32.1354 72.0664 31.3672C71.819 30.2865 71.6758 29.6615 71.6367 29.4922C71.3372 28.1901 70.7969 25.9245 70.0156 22.6953C69.9766 22.526 69.9375 22.4154 69.8984 22.3633C69.8464 22.3112 69.625 22.0508 69.2344 21.582C68.7396 22.1029 68.4857 22.3763 68.4727 22.4023C68.1992 23.431 67.8997 24.7591 67.5742 26.3867C67.418 27.168 67.2227 28.1836 66.9883 29.4336C66.6758 31.0742 66.4805 32.0898 66.4023 32.4805C66.3633 32.7018 66.2852 32.9753 66.168 33.3008C65.6992 34.707 64.6185 35.2148 62.9258 34.8242C62.6003 34.7591 62.3333 34.5768 62.125 34.2773C61.9297 33.9909 61.8451 33.6654 61.8711 33.3008C61.9622 32.2721 62.1315 31.1328 62.3789 29.8828C63.1341 25.8333 64.4102 19.1276 66.207 9.76562C66.2591 9.47917 66.3438 9.17318 66.4609 8.84766C66.8516 7.66276 67.75 7.07682 69.1562 7.08984C70.7188 7.08984 71.6562 7.85807 71.9688 9.39453C72.099 10.0456 72.3854 11.4714 72.8281 13.6719C73.1797 15.4297 73.4727 16.849 73.707 17.9297C73.8242 18.5286 74.0456 19.2708 74.3711 20.1562C74.5273 20.5599 74.7096 20.7422 74.918 20.7031C75.1914 20.651 75.3997 20.4688 75.543 20.1562C75.7253 19.7396 75.8685 19.2448 75.9727 18.6719C75.8945 19.1016 76.4544 16.1263 77.6523 9.74609C77.6914 9.51172 77.7565 9.2513 77.8477 8.96484C78.3164 7.49349 79.4036 6.92708 81.1094 7.26562C81.9297 7.42188 82.3008 8.23568 82.2227 9.70703ZM98.8047 16.6211C98.6354 15.2279 98.5378 14.4661 98.5117 14.3359C98.3164 13.3594 97.8086 12.5716 96.9883 11.9727C96.4935 11.6081 95.9987 11.4779 95.5039 11.582C94.9961 11.6862 94.599 12.0052 94.3125 12.5391C94.1172 12.9036 93.9479 13.4375 93.8047 14.1406C93.4531 15.9245 92.8802 18.8607 92.0859 22.9492C91.6172 25.3971 91.2982 27.0964 91.1289 28.0469C90.9727 28.9583 91.181 29.5898 91.7539 29.9414C92.3008 30.2799 92.9779 30.2344 93.7852 29.8047C94.6836 29.3229 95.4258 28.6003 96.0117 27.6367C97.7565 24.7852 98.6875 21.1133 98.8047 16.6211ZM94.7812 6.99219C96.513 7.03125 97.8802 7.23958 98.8828 7.61719C101.552 8.61979 103.199 10.638 103.824 13.6719C104.54 17.2786 104.182 21.1263 102.75 25.2148C101.852 27.7799 100.615 29.8828 99.0391 31.5234C97.5286 33.099 95.7057 34.1211 93.5703 34.5898C91.3307 35.0586 89.1823 35.1237 87.125 34.7852C85.6276 34.5247 85.0156 33.6523 85.2891 32.168C85.7448 29.7201 86.5651 25.3581 87.75 19.082C88.5052 15.0326 89.0911 11.9661 89.5078 9.88281C89.6901 8.91927 90.0156 8.23568 90.4844 7.83203C90.9531 7.42839 91.6758 7.19401 92.6523 7.12891C92.7305 7.12891 93.4401 7.08333 94.7812 6.99219ZM122.379 7.44141C122.757 7.6237 122.952 7.72135 122.965 7.73438C123.499 8.17708 123.648 8.79557 123.414 9.58984C123.297 9.98047 123.128 10.3255 122.906 10.625C122.594 11.1328 122.171 11.8555 121.637 12.793C120.139 15.3971 118.206 18.9648 115.836 23.4961C115.484 24.1602 115.178 25.0911 114.918 26.2891C114.827 26.6927 114.443 28.6914 113.766 32.2852C113.753 32.3372 113.746 32.3763 113.746 32.4023C113.408 34.5638 112.047 35.3711 109.664 34.8242C108.714 34.6159 108.31 33.9258 108.453 32.7539C108.466 32.6628 108.596 31.9141 108.844 30.5078C109.443 27.1484 109.755 25.306 109.781 24.9805C109.859 24.1211 109.768 22.832 109.508 21.1133C109.443 20.7096 108.798 16.7383 107.574 9.19922C107.483 8.70443 107.555 8.28125 107.789 7.92969C108.036 7.57812 108.408 7.36979 108.902 7.30469C109.801 7.1875 110.699 7.19401 111.598 7.32422C112.418 7.45443 112.906 8.0599 113.062 9.14062C113.128 9.67448 113.206 10.3971 113.297 11.3086C113.414 12.3893 113.492 13.112 113.531 13.4766C113.596 14.0495 113.701 14.5638 113.844 15.0195C113.948 15.3581 114.124 15.5599 114.371 15.625C114.618 15.6901 114.833 15.5794 115.016 15.293C115.471 14.6419 116.044 13.6523 116.734 12.3242C116.982 11.8294 117.574 10.5924 118.512 8.61328C119.137 7.32422 120.165 6.84245 121.598 7.16797C121.832 7.22005 122.092 7.3112 122.379 7.44141ZM144.918 6.81641C145.569 6.90755 145.921 6.95964 145.973 6.97266C146.975 7.16797 147.529 7.74089 147.633 8.69141C147.737 9.52474 147.815 10.612 147.867 11.9531C147.893 12.5781 147.932 13.7435 147.984 15.4492C148.036 16.9076 148.089 18.0729 148.141 18.9453C148.167 19.7266 148.277 20.5729 148.473 21.4844C148.551 21.875 148.74 22.1224 149.039 22.2266C149.13 22.2656 149.267 22.2331 149.449 22.1289C149.618 22.0117 149.729 21.8945 149.781 21.7773C150.51 20.3971 151.077 19.2122 151.48 18.2227C152.6 15.5273 153.863 12.4284 155.27 8.92578C155.803 7.55859 156.819 6.86849 158.316 6.85547C158.863 6.85547 159.41 6.89453 159.957 6.97266C160.335 7.03776 160.654 7.19401 160.914 7.44141C161.174 7.71484 161.311 8.03385 161.324 8.39844C161.35 9.20573 161.292 10.1497 161.148 11.2305C160.393 17.1419 159.488 24.0755 158.434 32.0312C158.277 33.2161 157.978 34.0039 157.535 34.3945C156.832 35.0326 155.901 35.1562 154.742 34.7656C153.987 34.5052 153.655 33.8542 153.746 32.8125C153.798 32.3047 153.876 31.6276 153.98 30.7812C154.124 29.7266 154.208 29.043 154.234 28.7305C154.43 27.0638 154.566 25.7487 154.645 24.7852C154.671 24.4727 154.632 24.0755 154.527 23.5938C154.475 23.3333 154.358 23.1771 154.176 23.125C153.993 23.0729 153.824 23.1576 153.668 23.3789C153.017 24.3815 152.6 25.0781 152.418 25.4688C151.936 26.5365 150.927 28.8281 149.391 32.3438C148.74 33.8151 147.776 34.5247 146.5 34.4727C145.458 34.4206 144.859 33.9518 144.703 33.0664C144.651 32.7018 144.534 31.4714 144.352 29.375C144.013 25.4297 143.857 23.6003 143.883 23.8867C143.805 23.1055 143.59 22.7018 143.238 22.6758C142.874 22.6367 142.581 23.0078 142.359 23.7891C142.19 24.375 141.624 26.4583 140.66 30.0391C140.087 32.2005 139.768 33.3594 139.703 33.5156C139.417 34.3099 138.824 34.7852 137.926 34.9414C137.014 35.1107 136.272 34.8893 135.699 34.2773C135.283 33.8477 135.172 33.2747 135.367 32.5586C135.471 32.1549 135.667 31.4583 135.953 30.4688C136.214 29.5833 136.409 28.8867 136.539 28.3789C136.643 27.9492 137.913 22.9622 140.348 13.418C140.53 12.6758 140.868 11.3607 141.363 9.47266C141.376 9.40755 141.402 9.31641 141.441 9.19922C141.48 9.05599 141.507 8.96484 141.52 8.92578C141.884 7.63672 142.724 6.95312 144.039 6.875L144.918 6.81641ZM175.504 21.6406C175.426 20.1172 175.315 18.9323 175.172 18.0859C175.12 17.8255 174.977 17.6693 174.742 17.6172C174.521 17.5781 174.345 17.6823 174.215 17.9297C173.29 19.6354 172.633 21.2305 172.242 22.7148C172.177 23.0664 172.236 23.3854 172.418 23.6719C172.6 23.9583 172.848 24.1406 173.16 24.2188C173.655 24.349 174.111 24.3294 174.527 24.1602C174.983 23.9648 175.263 23.6393 175.367 23.1836C175.484 22.7148 175.53 22.2005 175.504 21.6406ZM180.055 31.8359C180.055 31.901 180.055 31.9727 180.055 32.0508C180.068 32.1289 180.074 32.2005 180.074 32.2656C180.074 33.4245 179.664 34.2253 178.844 34.668C178.049 35.1107 177.177 35.0521 176.227 34.4922C175.667 34.1667 175.361 33.7305 175.309 33.1836C175.243 32.5716 175.198 31.7383 175.172 30.6836C175.159 29.9544 175.003 29.4141 174.703 29.0625C174.404 28.7109 173.902 28.4961 173.199 28.418C172.092 28.3008 171.24 28.4245 170.641 28.7891C170.12 29.1146 169.684 29.7201 169.332 30.6055C169.215 30.918 169.052 31.3216 168.844 31.8164C168.596 32.4414 168.434 32.8451 168.355 33.0273C168.004 33.8997 167.438 34.4922 166.656 34.8047C165.901 35.1042 165.146 35.0586 164.391 34.668C164.104 34.5247 163.87 34.2904 163.688 33.9648C163.466 33.5482 163.421 33.099 163.551 32.6172C163.668 32.1615 163.85 31.6341 164.098 31.0352C164.996 28.7695 167.314 23.0208 171.051 13.7891C172.262 10.8073 172.88 9.27734 172.906 9.19922C173.531 7.54557 174.71 6.76432 176.441 6.85547C177.509 6.90755 178.154 6.94661 178.375 6.97266C179.221 7.11589 179.736 7.63021 179.918 8.51562C179.996 8.90625 180.042 9.24479 180.055 9.53125C180.055 11.2891 180.055 15.3255 180.055 21.6406V31.8359ZM190.641 17.4219C190.784 18.2943 191.025 18.8216 191.363 19.0039C191.897 19.3034 192.529 19.2448 193.258 18.8281C193.453 18.7109 193.603 18.6003 193.707 18.4961C195.178 17.0898 195.771 15.3841 195.484 13.3789C195.432 13.0534 195.328 12.7539 195.172 12.4805C194.625 11.5951 193.967 11.1784 193.199 11.2305C192.379 11.3086 191.858 11.7969 191.637 12.6953C191.572 13.0078 191.24 14.5833 190.641 17.4219ZM192.652 6.62109C195.061 6.97266 196.337 7.16797 196.48 7.20703C197.809 7.51953 198.889 8.20964 199.723 9.27734C200.569 10.3451 201.018 11.569 201.07 12.9492C201.174 15.7357 200.243 18.0924 198.277 20.0195C197.73 20.5534 197.457 20.8203 197.457 20.8203C196.689 21.5104 196.493 22.3242 196.871 23.2617C197.431 24.5898 197.724 26.3997 197.75 28.6914C197.75 29.1341 197.77 29.8177 197.809 30.7422C197.848 31.6536 197.867 32.3438 197.867 32.8125C197.867 33.5156 197.737 34.0234 197.477 34.3359C197.203 34.6484 196.721 34.8503 196.031 34.9414C195.458 35.0065 194.872 34.974 194.273 34.8438C193.401 34.6745 192.926 34.1471 192.848 33.2617C192.796 32.7018 192.75 31.9531 192.711 31.0156C192.659 29.8698 192.62 29.1146 192.594 28.75C192.529 27.6823 192.431 26.7773 192.301 26.0352C192.262 25.7357 192.105 25.3971 191.832 25.0195C191.454 24.4987 191.005 24.2578 190.484 24.2969C189.951 24.349 189.566 24.6615 189.332 25.2344C189.137 25.7161 188.896 26.6602 188.609 28.0664C188.518 28.4961 188.382 29.2253 188.199 30.2539C188.03 31.1914 187.887 31.9206 187.77 32.4414C187.626 33.1055 187.418 33.6523 187.145 34.082C186.754 34.681 185.992 34.987 184.859 35C184.573 35 184.228 34.9544 183.824 34.8633C182.874 34.6289 182.464 33.9909 182.594 32.9492C182.711 32.0378 182.887 30.9701 183.121 29.7461C184.566 22.194 185.849 15.5013 186.969 9.66797C187.151 8.71745 187.477 8.04036 187.945 7.63672C188.401 7.22005 189.104 6.97266 190.055 6.89453C190.159 6.88151 191.018 6.82292 192.633 6.71875C192.646 6.65365 192.652 6.62109 192.652 6.62109ZM213.316 9.12109C212.926 11.6081 212.704 13.0469 212.652 13.4375C212.587 13.8932 212.581 14.3229 212.633 14.7266C212.672 15.0651 212.796 15.2734 213.004 15.3516C213.264 15.4427 213.492 15.3581 213.688 15.0977C214.573 13.8867 215.335 12.793 215.973 11.8164C216.194 11.4779 216.52 10.944 216.949 10.2148C217.366 9.51172 217.691 8.97786 217.926 8.61328C218.382 7.9362 219.078 7.46745 220.016 7.20703C220.94 6.94661 221.78 6.98568 222.535 7.32422C223.238 7.63672 223.434 8.13802 223.121 8.82812C222.835 9.45312 222.444 10.1432 221.949 10.8984C220.23 13.4505 218.694 15.6966 217.34 17.6367C216.493 18.8477 216.227 20.1953 216.539 21.6797C217.203 24.8568 217.867 28.1315 218.531 31.5039C218.648 32.0768 218.707 32.7148 218.707 33.418C218.707 34.2773 218.323 34.7461 217.555 34.8242C216.682 34.9284 215.862 34.9219 215.094 34.8047C214.221 34.6875 213.688 34.0755 213.492 32.9688C213.375 32.3958 213.238 31.6211 213.082 30.6445C212.9 29.4857 212.776 28.7109 212.711 28.3203C212.62 27.7995 212.47 27.1159 212.262 26.2695C212.132 25.7357 211.871 25.4818 211.48 25.5078C211.051 25.5339 210.745 25.7031 210.562 26.0156C210.25 26.5365 210.022 27.1289 209.879 27.793C209.592 29.0299 209.247 30.6966 208.844 32.793C208.635 33.8607 208.049 34.5443 207.086 34.8438C206.253 35.1042 205.406 35.0391 204.547 34.6484C203.974 34.388 203.707 33.9453 203.746 33.3203C203.811 32.4479 203.902 31.6992 204.02 31.0742C204.736 27.2982 206.018 20.5924 207.867 10.957C208.049 10.0716 208.18 9.45964 208.258 9.12109C208.635 7.6888 209.664 7.02474 211.344 7.12891C211.747 7.15495 212.112 7.2526 212.438 7.42188C213.102 7.76042 213.395 8.32682 213.316 9.12109ZM41.0703 63.6406C40.9922 62.1172 40.8815 60.9323 40.7383 60.0859C40.6862 59.8255 40.543 59.6693 40.3086 59.6172C40.0872 59.5781 39.9115 59.6823 39.7812 59.9297C38.8568 61.6354 38.1992 63.2305 37.8086 64.7148C37.7435 65.0664 37.8021 65.3854 37.9844 65.6719C38.1667 65.9583 38.4141 66.1406 38.7266 66.2188C39.2214 66.349 39.6771 66.3294 40.0938 66.1602C40.5495 65.9648 40.8294 65.6393 40.9336 65.1836C41.0508 64.7148 41.0964 64.2005 41.0703 63.6406ZM45.6211 73.8359C45.6211 73.901 45.6211 73.9727 45.6211 74.0508C45.6341 74.1289 45.6406 74.2005 45.6406 74.2656C45.6406 75.4245 45.2305 76.2253 44.4102 76.668C43.6159 77.1107 42.7435 77.0521 41.793 76.4922C41.2331 76.1667 40.9271 75.7305 40.875 75.1836C40.8099 74.5716 40.7643 73.7383 40.7383 72.6836C40.7253 71.9544 40.569 71.4141 40.2695 71.0625C39.9701 70.7109 39.4688 70.4961 38.7656 70.418C37.6589 70.3008 36.806 70.4245 36.207 70.7891C35.6862 71.1146 35.25 71.7201 34.8984 72.6055C34.7812 72.918 34.6185 73.3216 34.4102 73.8164C34.1628 74.4414 34 74.8451 33.9219 75.0273C33.5703 75.8997 33.0039 76.4922 32.2227 76.8047C31.4674 77.1042 30.7122 77.0586 29.957 76.668C29.6706 76.5247 29.4362 76.2904 29.2539 75.9648C29.0326 75.5482 28.987 75.099 29.1172 74.6172C29.2344 74.1615 29.4167 73.6341 29.6641 73.0352C30.5625 70.7695 32.8802 65.0208 36.6172 55.7891C37.8281 52.8073 38.4466 51.2773 38.4727 51.1992C39.0977 49.5456 40.276 48.7643 42.0078 48.8555C43.0755 48.9076 43.7201 48.9466 43.9414 48.9727C44.7878 49.1159 45.3021 49.6302 45.4844 50.5156C45.5625 50.9062 45.6081 51.2448 45.6211 51.5312C45.6211 53.2891 45.6211 57.3255 45.6211 63.6406V73.8359ZM48.1406 70.1641C48.6745 66.6094 48.9609 64.7279 49 64.5195C49.1562 63.6341 49.9375 59.4154 51.3438 51.8633C51.3568 51.7852 51.3698 51.7135 51.3828 51.6484C51.5911 50.4635 52.0339 49.6693 52.7109 49.2656C53.349 48.875 54.293 48.7969 55.543 49.0312C55.9206 49.0964 56.2266 49.2721 56.4609 49.5586C56.6953 49.8451 56.7995 50.1836 56.7734 50.5742C56.7214 51.4336 56.5846 52.4427 56.3633 53.6016C56.1549 54.7083 55.7122 57.0651 55.0352 60.6719C54.4753 63.6016 54.0326 65.9648 53.707 67.7617C53.5508 68.556 53.5247 69.3568 53.6289 70.1641C53.7461 71.0495 54.1693 71.6354 54.8984 71.9219C55.6406 72.2083 56.3372 72.0521 56.9883 71.4531C57.6133 70.8802 58.0299 70.2227 58.2383 69.4805C58.694 67.7747 59.1888 65.5807 59.7227 62.8984C60.0221 61.4661 60.3867 59.5977 60.8164 57.293C61.3893 54.2852 61.7539 52.4102 61.9102 51.668C62.1055 50.6523 62.4049 49.9557 62.8086 49.5781C63.2383 49.1875 63.8568 48.9596 64.6641 48.8945C65.4974 48.8294 66.1419 48.9661 66.5977 49.3047C67.2096 49.7474 67.4375 50.3854 67.2812 51.2188C67.3073 51.0885 66.9492 52.9245 66.207 56.7266C64.8919 63.4974 64.1693 67.1823 64.0391 67.7812C63.5312 70.2422 62.7174 72.2214 61.5977 73.7188C59.7227 76.2318 57.0729 77.2995 53.6484 76.9219C51.8646 76.7266 50.4844 75.9974 49.5078 74.7344C48.8307 73.862 48.4271 72.6836 48.2969 71.1992C48.2969 71.1732 48.2969 70.8346 48.2969 70.1836C48.3099 70.1836 48.2578 70.1771 48.1406 70.1641ZM81.8516 48.7383C83.1406 48.9987 83.8242 49.1419 83.9023 49.168C84.5404 49.3893 84.8659 49.8516 84.8789 50.5547C84.8919 51.3359 84.6706 52.026 84.2148 52.625C83.7201 53.2891 83.0885 53.6211 82.3203 53.6211C80.6146 53.6211 79.293 54.1159 78.3555 55.1055C77.431 56.0951 76.7409 57.0195 76.2852 57.8789C74.4883 61.3555 73.9154 65.0013 74.5664 68.8164C74.931 70.8867 76.2005 72.013 78.375 72.1953C78.7135 72.2214 79.0326 72.2604 79.332 72.3125C79.8789 72.4167 80.2695 72.7422 80.5039 73.2891C80.8164 74.0703 80.7904 74.819 80.4258 75.5352C80.0482 76.2513 79.4492 76.681 78.6289 76.8242C76.6237 77.1888 74.7747 76.9609 73.082 76.1406C71.0247 75.151 69.6836 73.263 69.0586 70.4766C68.668 68.6797 68.6419 66.4401 68.9805 63.7578C69.306 61.1276 69.9375 58.8424 70.875 56.9023C72.6719 53.1784 75.1263 50.737 78.2383 49.5781C78.3555 49.5391 79.5599 49.2591 81.8516 48.7383ZM95.2305 48.6797C98.0951 48.6797 99.7031 48.6862 100.055 48.6992C101.083 48.7122 101.767 48.9401 102.105 49.3828C102.327 49.6693 102.457 49.9362 102.496 50.1836C102.665 51.1862 102.496 52.013 101.988 52.6641C101.467 53.3021 100.68 53.6536 99.625 53.7188C98.4661 53.7969 97.7109 54.0898 97.3594 54.5977C97.0208 55.1055 96.7865 55.6589 96.6562 56.2578C96.2917 58.1458 95.1784 63.9727 93.3164 73.7383C93.2513 74.0378 93.1797 74.3503 93.1016 74.6758C92.8542 75.6654 92.2747 76.3555 91.3633 76.7461C90.4648 77.1367 89.5599 77.0846 88.6484 76.5898C88.0495 76.2643 87.776 75.763 87.8281 75.0859C87.8672 74.4349 87.9583 73.7318 88.1016 72.9766C88.388 71.4661 88.9023 68.7578 89.6445 64.8516C90.2956 61.4271 90.8099 58.7188 91.1875 56.7266C91.2656 56.2708 91.2917 55.8021 91.2656 55.3203C91.2005 54.526 90.7643 54.0378 89.957 53.8555C89.8268 53.8164 89.6185 53.7708 89.332 53.7188C89.0586 53.6667 88.8568 53.6276 88.7266 53.6016C87.8281 53.3932 87.3724 52.8529 87.3594 51.9805C87.3333 50.5872 87.737 49.6497 88.5703 49.168C89.0391 48.8945 89.651 48.7383 90.4062 48.6992C90.7578 48.6862 92.3659 48.6797 95.2305 48.6797ZM113.57 51.3555C113.245 53.1523 113.082 54.0573 113.082 54.0703C110.634 66.987 109.358 73.7383 109.254 74.3242C108.837 76.5638 107.496 77.3971 105.23 76.8242C104.28 76.5768 103.805 76.0365 103.805 75.2031C103.805 74.9297 103.876 74.4284 104.02 73.6992C104.41 71.6289 105.12 67.8984 106.148 62.5078C107.06 57.7812 107.776 54.0508 108.297 51.3164C108.505 50.1966 109.026 49.4609 109.859 49.1094C110.589 48.8099 111.474 48.8099 112.516 49.1094C113.232 49.3177 113.583 50.0664 113.57 51.3555ZM120.406 67.9961C120.497 69.0247 120.549 69.6042 120.562 69.7344C120.589 69.9557 120.654 70.2096 120.758 70.4961C121.031 71.3034 121.5 71.8047 122.164 72C122.828 72.2083 123.486 72.0456 124.137 71.5117C124.944 70.8737 125.647 69.7018 126.246 67.9961C127.301 65.0273 127.932 61.7005 128.141 58.0156C128.193 57.1302 128.095 56.2318 127.848 55.3203C127.639 54.526 127.184 54.0312 126.48 53.8359C125.79 53.6276 125.146 53.8034 124.547 54.3633C123.909 54.9622 123.421 55.6068 123.082 56.2969C121.611 59.2786 120.719 63.1784 120.406 67.9961ZM115.055 67.1953C115.185 62.3255 116.376 57.957 118.629 54.0898C119.749 52.1758 121.096 50.8021 122.672 49.9688C125.562 48.4453 128.206 48.4518 130.602 49.9883C131.812 50.7826 132.652 52.1107 133.121 53.9727C133.564 55.7174 133.668 57.7943 133.434 60.2031C133.121 63.4714 132.411 66.4401 131.305 69.1094C130.146 71.9219 128.688 73.9792 126.93 75.2812C124.521 77.0651 121.975 77.4557 119.293 76.4531C117.665 75.8411 116.48 74.5065 115.738 72.4492C115.296 71.1732 115.068 69.4219 115.055 67.1953ZM156.109 51.707C155.719 53.8034 155.517 54.8971 155.504 54.9883C155.165 56.7591 153.928 63.1979 151.793 74.3047C151.78 74.3438 151.773 74.3893 151.773 74.4414C151.76 74.5065 151.747 74.5586 151.734 74.5977C151.357 76.5638 150.094 77.319 147.945 76.8633C147.164 76.694 146.65 76.1536 146.402 75.2422C146.272 74.7604 146.122 74.1354 145.953 73.3672C145.706 72.2865 145.562 71.6615 145.523 71.4922C145.224 70.1901 144.684 67.9245 143.902 64.6953C143.863 64.526 143.824 64.4154 143.785 64.3633C143.733 64.3112 143.512 64.0508 143.121 63.582C142.626 64.1029 142.372 64.3763 142.359 64.4023C142.086 65.431 141.786 66.7591 141.461 68.3867C141.305 69.168 141.109 70.1836 140.875 71.4336C140.562 73.0742 140.367 74.0898 140.289 74.4805C140.25 74.7018 140.172 74.9753 140.055 75.3008C139.586 76.707 138.505 77.2148 136.812 76.8242C136.487 76.7591 136.22 76.5768 136.012 76.2773C135.816 75.9909 135.732 75.6654 135.758 75.3008C135.849 74.2721 136.018 73.1328 136.266 71.8828C137.021 67.8333 138.297 61.1276 140.094 51.7656C140.146 51.4792 140.23 51.1732 140.348 50.8477C140.738 49.6628 141.637 49.0768 143.043 49.0898C144.605 49.0898 145.543 49.8581 145.855 51.3945C145.986 52.0456 146.272 53.4714 146.715 55.6719C147.066 57.4297 147.359 58.849 147.594 59.9297C147.711 60.5286 147.932 61.2708 148.258 62.1562C148.414 62.5599 148.596 62.7422 148.805 62.7031C149.078 62.651 149.286 62.4688 149.43 62.1562C149.612 61.7396 149.755 61.2448 149.859 60.6719C149.781 61.1016 150.341 58.1263 151.539 51.7461C151.578 51.5117 151.643 51.2513 151.734 50.9648C152.203 49.4935 153.29 48.9271 154.996 49.2656C155.816 49.4219 156.188 50.2357 156.109 51.707ZM164.859 76.9805C162.932 76.9805 161.832 76.9805 161.559 76.9805C161.207 76.9805 160.849 76.9414 160.484 76.8633C159.495 76.668 159.046 76.1081 159.137 75.1836C159.241 74.0508 159.436 72.7227 159.723 71.1992C160.842 65.3398 162.086 58.862 163.453 51.7656C163.583 51.1016 163.759 50.5677 163.98 50.1641C164.397 49.4219 165.048 49.0508 165.934 49.0508C169.645 49.0117 172.125 49.0117 173.375 49.0508C174.299 49.0898 174.892 49.4154 175.152 50.0273C175.374 50.5612 175.341 51.2253 175.055 52.0195C174.69 53.0612 173.837 53.6016 172.496 53.6406C171.324 53.6797 170.497 53.7188 170.016 53.7578C169.273 53.8229 168.74 54.1745 168.414 54.8125C167.815 56.0104 167.548 57.2734 167.613 58.6016C167.665 59.3568 168.095 59.8255 168.902 60.0078C169.111 60.0469 169.482 60.0924 170.016 60.1445C170.107 60.1576 170.25 60.1641 170.445 60.1641C170.628 60.1641 170.771 60.1706 170.875 60.1836C172.138 60.3268 172.802 60.8867 172.867 61.8633C172.906 62.4753 172.743 63.0286 172.379 63.5234C172.027 64.0312 171.565 64.3372 170.992 64.4414C170.836 64.4805 170.367 64.526 169.586 64.5781C169.495 64.5911 169.228 64.6042 168.785 64.6172C168.473 64.6432 168.212 64.6693 168.004 64.6953C166.962 64.8125 166.324 65.3529 166.09 66.3164C165.725 67.7878 165.458 69.1029 165.289 70.2617C165.146 71.2904 165.634 71.9023 166.754 72.0977C166.975 72.1367 167.464 72.1758 168.219 72.2148C168.323 72.2279 168.499 72.2344 168.746 72.2344C168.98 72.2344 169.163 72.2344 169.293 72.2344C170.647 72.3516 171.344 72.944 171.383 74.0117C171.422 74.7669 171.272 75.431 170.934 76.0039C170.582 76.6029 170.107 76.9219 169.508 76.9609C169.078 76.974 167.529 76.9805 164.859 76.9805ZM184.195 76.9805C182.268 76.9805 181.168 76.9805 180.895 76.9805C180.543 76.9805 180.185 76.9414 179.82 76.8633C178.831 76.668 178.382 76.1081 178.473 75.1836C178.577 74.0508 178.772 72.7227 179.059 71.1992C180.178 65.3398 181.422 58.862 182.789 51.7656C182.919 51.1016 183.095 50.5677 183.316 50.1641C183.733 49.4219 184.384 49.0508 185.27 49.0508C188.98 49.0117 191.461 49.0117 192.711 49.0508C193.635 49.0898 194.228 49.4154 194.488 50.0273C194.71 50.5612 194.677 51.2253 194.391 52.0195C194.026 53.0612 193.173 53.6016 191.832 53.6406C190.66 53.6797 189.833 53.7188 189.352 53.7578C188.609 53.8229 188.076 54.1745 187.75 54.8125C187.151 56.0104 186.884 57.2734 186.949 58.6016C187.001 59.3568 187.431 59.8255 188.238 60.0078C188.447 60.0469 188.818 60.0924 189.352 60.1445C189.443 60.1576 189.586 60.1641 189.781 60.1641C189.964 60.1641 190.107 60.1706 190.211 60.1836C191.474 60.3268 192.138 60.8867 192.203 61.8633C192.242 62.4753 192.079 63.0286 191.715 63.5234C191.363 64.0312 190.901 64.3372 190.328 64.4414C190.172 64.4805 189.703 64.526 188.922 64.5781C188.831 64.5911 188.564 64.6042 188.121 64.6172C187.809 64.6432 187.548 64.6693 187.34 64.6953C186.298 64.8125 185.66 65.3529 185.426 66.3164C185.061 67.7878 184.794 69.1029 184.625 70.2617C184.482 71.2904 184.97 71.9023 186.09 72.0977C186.311 72.1367 186.799 72.1758 187.555 72.2148C187.659 72.2279 187.835 72.2344 188.082 72.2344C188.316 72.2344 188.499 72.2344 188.629 72.2344C189.983 72.3516 190.68 72.944 190.719 74.0117C190.758 74.7669 190.608 75.431 190.27 76.0039C189.918 76.6029 189.443 76.9219 188.844 76.9609C188.414 76.974 186.865 76.9805 184.195 76.9805ZM205.855 59.4219C205.999 60.2943 206.24 60.8216 206.578 61.0039C207.112 61.3034 207.743 61.2448 208.473 60.8281C208.668 60.7109 208.818 60.6003 208.922 60.4961C210.393 59.0898 210.986 57.3841 210.699 55.3789C210.647 55.0534 210.543 54.7539 210.387 54.4805C209.84 53.5951 209.182 53.1784 208.414 53.2305C207.594 53.3086 207.073 53.7969 206.852 54.6953C206.786 55.0078 206.454 56.5833 205.855 59.4219ZM207.867 48.6211C210.276 48.9727 211.552 49.168 211.695 49.207C213.023 49.5195 214.104 50.2096 214.938 51.2773C215.784 52.3451 216.233 53.569 216.285 54.9492C216.389 57.7357 215.458 60.0924 213.492 62.0195C212.945 62.5534 212.672 62.8203 212.672 62.8203C211.904 63.5104 211.708 64.3242 212.086 65.2617C212.646 66.5898 212.939 68.3997 212.965 70.6914C212.965 71.1341 212.984 71.8177 213.023 72.7422C213.062 73.6536 213.082 74.3438 213.082 74.8125C213.082 75.5156 212.952 76.0234 212.691 76.3359C212.418 76.6484 211.936 76.8503 211.246 76.9414C210.673 77.0065 210.087 76.974 209.488 76.8438C208.616 76.6745 208.141 76.1471 208.062 75.2617C208.01 74.7018 207.965 73.9531 207.926 73.0156C207.874 71.8698 207.835 71.1146 207.809 70.75C207.743 69.6823 207.646 68.7773 207.516 68.0352C207.477 67.7357 207.32 67.3971 207.047 67.0195C206.669 66.4987 206.22 66.2578 205.699 66.2969C205.165 66.349 204.781 66.6615 204.547 67.2344C204.352 67.7161 204.111 68.6602 203.824 70.0664C203.733 70.4961 203.596 71.2253 203.414 72.2539C203.245 73.1914 203.102 73.9206 202.984 74.4414C202.841 75.1055 202.633 75.6523 202.359 76.082C201.969 76.681 201.207 76.987 200.074 77C199.788 77 199.443 76.9544 199.039 76.8633C198.089 76.6289 197.678 75.9909 197.809 74.9492C197.926 74.0378 198.102 72.9701 198.336 71.7461C199.781 64.194 201.064 57.5013 202.184 51.668C202.366 50.7174 202.691 50.0404 203.16 49.6367C203.616 49.2201 204.319 48.9727 205.27 48.8945C205.374 48.8815 206.233 48.8229 207.848 48.7188C207.861 48.6536 207.867 48.6211 207.867 48.6211Z" fill="#F3F0E6"/>
</svg>
