<svg width="21" height="21" viewBox="0 0 21 21" fill="none" xmlns="http://www.w3.org/2000/svg">
<path d="M18.6713 18.518C18.4904 18.6989 18.1256 18.854 17.4376 18.6509C16.7397 18.4449 15.8037 17.8849 14.702 16.7831C13.5965 15.6777 12.853 14.5947 12.4877 13.727C12.3045 13.2918 12.2316 12.9466 12.2305 12.7001C12.2295 12.4599 12.2938 12.3667 12.3303 12.3302C12.3669 12.2937 12.46 12.2294 12.7001 12.2304C12.9467 12.2315 13.2919 12.3044 13.7271 12.4877C14.5947 12.8529 15.6777 13.5965 16.7831 14.702C17.8996 15.8184 18.5012 16.7276 18.7402 17.3998C18.9718 18.0514 18.8339 18.3554 18.6713 18.518Z" stroke="#222B47" stroke-width="1.5"/>
<circle cx="7.5" cy="7.5" r="6.75" stroke="#222B47" stroke-width="1.5"/>
</svg>
