<svg width="25" height="25" viewBox="0 0 25 25" fill="none" xmlns="http://www.w3.org/2000/svg">
<path fill-rule="evenodd" clip-rule="evenodd" d="M12.666 23C18.2809 23 23.166 18.1149 23.166 12.5C23.166 6.88511 18.2809 2 12.666 2C7.05112 2 2.16602 6.88511 2.16602 12.5C2.16602 18.1149 7.05112 23 12.666 23ZM12.666 24.5C19.5696 24.5 24.666 19.4036 24.666 12.5C24.666 5.59644 19.5696 0.5 12.666 0.5C5.76246 0.5 0.666016 5.59644 0.666016 12.5C0.666016 19.4036 5.76246 24.5 12.666 24.5Z" fill="#FDFCF7"/>
<path d="M13.666 18.5C13.666 19.0523 13.2183 19.5 12.666 19.5C12.1137 19.5 11.666 19.0523 11.666 18.5C11.666 17.9477 12.1137 17.5 12.666 17.5C13.2183 17.5 13.666 17.9477 13.666 18.5Z" fill="#FDFCF7"/>
<path d="M9.43697 8.8734C9.50186 8.18421 9.76967 7.52975 10.2065 6.99276C10.6434 6.45578 11.2296 6.0604 11.8912 5.85661C12.5528 5.65283 13.2599 5.6498 13.9232 5.8479C14.5865 6.046 15.1761 6.43634 15.6175 6.96956C16.059 7.50277 16.3324 8.15492 16.4032 8.84352C16.474 9.53212 16.339 10.2263 16.0153 10.8382C15.6916 11.45 15.1098 11.7791 14.5847 12.2811C13.5421 13.2778 13.1035 13.2241 13.1501 15.4571C13.0567 15.7546 12.427 15.6826 12.427 15.6826C12.427 15.6826 11.9293 15.6473 11.9041 15.3398C11.879 15.0323 11.5969 13.7027 12.0956 12.6394C12.483 11.8134 13.5179 11.0753 13.7961 10.8209C14.3703 10.2958 14.3782 10.3839 14.5484 10.0621C14.7186 9.74037 14.7896 9.37536 14.7523 9.01327C14.7151 8.65117 14.5713 8.30825 14.3392 8.02786C14.1071 7.74748 13.797 7.54222 13.4482 7.43805C13.0995 7.33388 12.7276 7.33548 12.3798 7.44263C12.0319 7.54979 11.7236 7.7577 11.4939 8.04007C11.2642 8.32244 11.1914 8.82597 11.0892 9.02898C10.7493 9.70439 10.1437 9.61281 10.1437 9.61281C10.1437 9.61281 9.37207 9.56258 9.43697 8.8734Z" fill="#FDFCF7"/>
</svg>
